<mxfile host="app.diagrams.net" agent="Mozilla/5.0 (Windows NT 10.0; Win64; x64) AppleWebKit/537.36 (KHTML, like Gecko) Chrome/134.0.0.0 Safari/537.36" version="26.2.4">
  <diagram name="第 1 页" id="AyyLHQCJ35BeyhHwehsR">
    <mxGraphModel dx="1379" dy="1456" grid="1" gridSize="10" guides="1" tooltips="1" connect="1" arrows="1" fold="1" page="0" pageScale="1" pageWidth="827" pageHeight="1169" math="1" shadow="0">
      <root>
        <mxCell id="0" />
        <mxCell id="1" parent="0" />
        <mxCell id="AXdwlv0kfo9XUWebcFwi-90" value="" style="rounded=1;whiteSpace=wrap;html=1;fontFamily=Helvetica;fontSize=12;fontColor=#333333;labelBackgroundColor=default;fillColor=#f5f5f5;strokeColor=#666666;" vertex="1" parent="1">
          <mxGeometry x="120" y="-740" width="280" height="220" as="geometry" />
        </mxCell>
        <mxCell id="AXdwlv0kfo9XUWebcFwi-1" value="A" style="ellipse;whiteSpace=wrap;html=1;aspect=fixed;fillColor=#f8cecc;strokeColor=#b85450;" vertex="1" parent="1">
          <mxGeometry x="-30" y="-700" width="30" height="30" as="geometry" />
        </mxCell>
        <mxCell id="AXdwlv0kfo9XUWebcFwi-6" style="edgeStyle=none;curved=1;rounded=0;orthogonalLoop=1;jettySize=auto;html=1;entryX=1;entryY=0.5;entryDx=0;entryDy=0;fontSize=12;startSize=8;endSize=8;endArrow=classicThin;endFill=1;" edge="1" parent="1" source="AXdwlv0kfo9XUWebcFwi-2" target="AXdwlv0kfo9XUWebcFwi-1">
          <mxGeometry relative="1" as="geometry" />
        </mxCell>
        <mxCell id="AXdwlv0kfo9XUWebcFwi-8" style="edgeStyle=none;shape=connector;curved=1;rounded=0;orthogonalLoop=1;jettySize=auto;html=1;entryX=1;entryY=0.5;entryDx=0;entryDy=0;strokeColor=default;align=center;verticalAlign=middle;fontFamily=Helvetica;fontSize=12;fontColor=default;labelBackgroundColor=default;startSize=8;endArrow=classicThin;endFill=1;endSize=8;" edge="1" parent="1" source="AXdwlv0kfo9XUWebcFwi-2" target="AXdwlv0kfo9XUWebcFwi-5">
          <mxGeometry relative="1" as="geometry" />
        </mxCell>
        <mxCell id="AXdwlv0kfo9XUWebcFwi-10" style="edgeStyle=none;shape=connector;curved=1;rounded=0;orthogonalLoop=1;jettySize=auto;html=1;strokeColor=default;align=center;verticalAlign=middle;fontFamily=Helvetica;fontSize=12;fontColor=default;labelBackgroundColor=default;startSize=8;endArrow=classicThin;endFill=1;endSize=8;" edge="1" parent="1" source="AXdwlv0kfo9XUWebcFwi-2" target="AXdwlv0kfo9XUWebcFwi-3">
          <mxGeometry relative="1" as="geometry" />
        </mxCell>
        <mxCell id="AXdwlv0kfo9XUWebcFwi-2" value="B" style="ellipse;whiteSpace=wrap;html=1;aspect=fixed;fillColor=#f8cecc;strokeColor=#b85450;" vertex="1" parent="1">
          <mxGeometry x="50" y="-680" width="30" height="30" as="geometry" />
        </mxCell>
        <mxCell id="AXdwlv0kfo9XUWebcFwi-9" style="edgeStyle=none;shape=connector;curved=1;rounded=0;orthogonalLoop=1;jettySize=auto;html=1;entryX=1;entryY=1;entryDx=0;entryDy=0;strokeColor=default;align=center;verticalAlign=middle;fontFamily=Helvetica;fontSize=12;fontColor=default;labelBackgroundColor=default;startSize=8;endArrow=classicThin;endFill=1;endSize=8;" edge="1" parent="1" source="AXdwlv0kfo9XUWebcFwi-3" target="AXdwlv0kfo9XUWebcFwi-5">
          <mxGeometry relative="1" as="geometry" />
        </mxCell>
        <mxCell id="AXdwlv0kfo9XUWebcFwi-3" value="C" style="ellipse;whiteSpace=wrap;html=1;aspect=fixed;fillColor=#f8cecc;strokeColor=#b85450;" vertex="1" parent="1">
          <mxGeometry x="40" y="-610" width="30" height="30" as="geometry" />
        </mxCell>
        <mxCell id="AXdwlv0kfo9XUWebcFwi-4" value="E" style="ellipse;whiteSpace=wrap;html=1;aspect=fixed;fillColor=#f8cecc;strokeColor=#b85450;" vertex="1" parent="1">
          <mxGeometry x="-40" y="-580" width="30" height="30" as="geometry" />
        </mxCell>
        <mxCell id="AXdwlv0kfo9XUWebcFwi-7" style="edgeStyle=none;shape=connector;curved=1;rounded=0;orthogonalLoop=1;jettySize=auto;html=1;entryX=0;entryY=0.5;entryDx=0;entryDy=0;strokeColor=default;align=center;verticalAlign=middle;fontFamily=Helvetica;fontSize=12;fontColor=default;labelBackgroundColor=default;startSize=8;endArrow=classicThin;endFill=1;endSize=8;" edge="1" parent="1" source="AXdwlv0kfo9XUWebcFwi-5" target="AXdwlv0kfo9XUWebcFwi-1">
          <mxGeometry relative="1" as="geometry" />
        </mxCell>
        <mxCell id="AXdwlv0kfo9XUWebcFwi-11" style="edgeStyle=none;shape=connector;curved=1;rounded=0;orthogonalLoop=1;jettySize=auto;html=1;entryX=0;entryY=0;entryDx=0;entryDy=0;strokeColor=default;align=center;verticalAlign=middle;fontFamily=Helvetica;fontSize=12;fontColor=default;labelBackgroundColor=default;startSize=8;endArrow=classicThin;endFill=1;endSize=8;" edge="1" parent="1" source="AXdwlv0kfo9XUWebcFwi-5" target="AXdwlv0kfo9XUWebcFwi-4">
          <mxGeometry relative="1" as="geometry" />
        </mxCell>
        <mxCell id="AXdwlv0kfo9XUWebcFwi-5" value="D" style="ellipse;whiteSpace=wrap;html=1;aspect=fixed;fillColor=#f8cecc;strokeColor=#b85450;" vertex="1" parent="1">
          <mxGeometry x="-100" y="-640" width="30" height="30" as="geometry" />
        </mxCell>
        <mxCell id="AXdwlv0kfo9XUWebcFwi-13" value="$$r_1$$" style="text;html=1;align=center;verticalAlign=middle;whiteSpace=wrap;rounded=0;fontFamily=Helvetica;fontSize=12;fontColor=default;labelBackgroundColor=none;" vertex="1" parent="1">
          <mxGeometry x="10" y="-710" width="60" height="30" as="geometry" />
        </mxCell>
        <mxCell id="AXdwlv0kfo9XUWebcFwi-14" value="$$r_2$$" style="text;html=1;align=center;verticalAlign=middle;whiteSpace=wrap;rounded=0;fontFamily=Helvetica;fontSize=12;fontColor=default;labelBackgroundColor=none;" vertex="1" parent="1">
          <mxGeometry x="-45" y="-670" width="60" height="30" as="geometry" />
        </mxCell>
        <mxCell id="AXdwlv0kfo9XUWebcFwi-15" value="$$r_3$$" style="text;html=1;align=center;verticalAlign=middle;whiteSpace=wrap;rounded=0;fontFamily=Helvetica;fontSize=12;fontColor=default;labelBackgroundColor=none;" vertex="1" parent="1">
          <mxGeometry x="-20" y="-630" width="60" height="30" as="geometry" />
        </mxCell>
        <mxCell id="AXdwlv0kfo9XUWebcFwi-16" value="$$r_5$$" style="text;html=1;align=center;verticalAlign=middle;whiteSpace=wrap;rounded=0;fontFamily=Helvetica;fontSize=12;fontColor=default;labelBackgroundColor=none;" vertex="1" parent="1">
          <mxGeometry x="-100" y="-680" width="60" height="30" as="geometry" />
        </mxCell>
        <mxCell id="AXdwlv0kfo9XUWebcFwi-17" value="$$r_5$$" style="text;html=1;align=center;verticalAlign=middle;whiteSpace=wrap;rounded=0;fontFamily=Helvetica;fontSize=12;fontColor=default;labelBackgroundColor=none;" vertex="1" parent="1">
          <mxGeometry x="-100" y="-600" width="60" height="30" as="geometry" />
        </mxCell>
        <mxCell id="AXdwlv0kfo9XUWebcFwi-19" style="edgeStyle=none;shape=connector;curved=1;rounded=0;orthogonalLoop=1;jettySize=auto;html=1;strokeColor=default;align=center;verticalAlign=middle;fontFamily=Helvetica;fontSize=12;fontColor=default;labelBackgroundColor=default;startSize=8;endArrow=classicThin;endFill=1;endSize=8;" edge="1" parent="1" source="AXdwlv0kfo9XUWebcFwi-18">
          <mxGeometry relative="1" as="geometry">
            <mxPoint x="130" y="-705" as="targetPoint" />
          </mxGeometry>
        </mxCell>
        <mxCell id="AXdwlv0kfo9XUWebcFwi-20" style="edgeStyle=none;shape=connector;curved=1;rounded=0;orthogonalLoop=1;jettySize=auto;html=1;strokeColor=default;align=center;verticalAlign=middle;fontFamily=Helvetica;fontSize=12;fontColor=default;labelBackgroundColor=default;startSize=8;endArrow=classicThin;endFill=1;endSize=8;" edge="1" parent="1" source="AXdwlv0kfo9XUWebcFwi-18">
          <mxGeometry relative="1" as="geometry">
            <mxPoint x="240" y="-705" as="targetPoint" />
          </mxGeometry>
        </mxCell>
        <mxCell id="AXdwlv0kfo9XUWebcFwi-18" value="" style="ellipse;whiteSpace=wrap;html=1;aspect=fixed;fontFamily=Helvetica;fontSize=12;fontColor=default;labelBackgroundColor=default;" vertex="1" parent="1">
          <mxGeometry x="170" y="-720" width="30" height="30" as="geometry" />
        </mxCell>
        <mxCell id="AXdwlv0kfo9XUWebcFwi-21" value="$$r_1$$" style="text;html=1;align=center;verticalAlign=middle;whiteSpace=wrap;rounded=0;fontFamily=Helvetica;fontSize=12;fontColor=default;labelBackgroundColor=none;" vertex="1" parent="1">
          <mxGeometry x="130" y="-730" width="60" height="30" as="geometry" />
        </mxCell>
        <mxCell id="AXdwlv0kfo9XUWebcFwi-22" value="$$r_2$$" style="text;html=1;align=center;verticalAlign=middle;whiteSpace=wrap;rounded=0;fontFamily=Helvetica;fontSize=12;fontColor=default;labelBackgroundColor=none;" vertex="1" parent="1">
          <mxGeometry x="190" y="-730" width="60" height="30" as="geometry" />
        </mxCell>
        <mxCell id="AXdwlv0kfo9XUWebcFwi-24" style="edgeStyle=none;shape=connector;curved=1;rounded=0;orthogonalLoop=1;jettySize=auto;html=1;strokeColor=default;align=center;verticalAlign=middle;fontFamily=Helvetica;fontSize=12;fontColor=default;labelBackgroundColor=default;startSize=8;endArrow=classicThin;endFill=1;endSize=8;" edge="1" parent="1">
          <mxGeometry relative="1" as="geometry">
            <mxPoint x="200" y="-655.43" as="targetPoint" />
            <mxPoint x="240" y="-655.43" as="sourcePoint" />
          </mxGeometry>
        </mxCell>
        <mxCell id="AXdwlv0kfo9XUWebcFwi-25" value="" style="ellipse;whiteSpace=wrap;html=1;aspect=fixed;fontFamily=Helvetica;fontSize=12;fontColor=default;labelBackgroundColor=default;" vertex="1" parent="1">
          <mxGeometry x="170" y="-670" width="30" height="30" as="geometry" />
        </mxCell>
        <mxCell id="AXdwlv0kfo9XUWebcFwi-26" value="$$r_2$$" style="text;html=1;align=center;verticalAlign=middle;whiteSpace=wrap;rounded=0;fontFamily=Helvetica;fontSize=12;fontColor=default;labelBackgroundColor=none;" vertex="1" parent="1">
          <mxGeometry x="120" y="-680" width="60" height="30" as="geometry" />
        </mxCell>
        <mxCell id="AXdwlv0kfo9XUWebcFwi-27" value="$$r_3$$" style="text;html=1;align=center;verticalAlign=middle;whiteSpace=wrap;rounded=0;fontFamily=Helvetica;fontSize=12;fontColor=default;labelBackgroundColor=none;" vertex="1" parent="1">
          <mxGeometry x="190" y="-680" width="60" height="25" as="geometry" />
        </mxCell>
        <mxCell id="AXdwlv0kfo9XUWebcFwi-28" style="edgeStyle=none;shape=connector;curved=1;rounded=0;orthogonalLoop=1;jettySize=auto;html=1;strokeColor=default;align=center;verticalAlign=middle;fontFamily=Helvetica;fontSize=12;fontColor=default;labelBackgroundColor=default;startSize=8;endArrow=classicThin;endFill=1;endSize=8;entryX=0;entryY=0.5;entryDx=0;entryDy=0;" edge="1" parent="1" target="AXdwlv0kfo9XUWebcFwi-25">
          <mxGeometry relative="1" as="geometry">
            <mxPoint x="80" y="-620" as="targetPoint" />
            <mxPoint x="130" y="-655" as="sourcePoint" />
          </mxGeometry>
        </mxCell>
        <mxCell id="AXdwlv0kfo9XUWebcFwi-29" style="edgeStyle=none;shape=connector;curved=1;rounded=0;orthogonalLoop=1;jettySize=auto;html=1;strokeColor=default;align=center;verticalAlign=middle;fontFamily=Helvetica;fontSize=12;fontColor=default;labelBackgroundColor=default;startSize=8;endArrow=classicThin;endFill=1;endSize=8;" edge="1" parent="1">
          <mxGeometry relative="1" as="geometry">
            <mxPoint x="200" y="-605.43" as="targetPoint" />
            <mxPoint x="240" y="-605.43" as="sourcePoint" />
          </mxGeometry>
        </mxCell>
        <mxCell id="AXdwlv0kfo9XUWebcFwi-30" value="" style="ellipse;whiteSpace=wrap;html=1;aspect=fixed;fontFamily=Helvetica;fontSize=12;fontColor=default;labelBackgroundColor=default;" vertex="1" parent="1">
          <mxGeometry x="170" y="-620" width="30" height="30" as="geometry" />
        </mxCell>
        <mxCell id="AXdwlv0kfo9XUWebcFwi-31" value="$$r_5$$" style="text;html=1;align=center;verticalAlign=middle;whiteSpace=wrap;rounded=0;fontFamily=Helvetica;fontSize=12;fontColor=default;labelBackgroundColor=none;" vertex="1" parent="1">
          <mxGeometry x="120" y="-630" width="60" height="30" as="geometry" />
        </mxCell>
        <mxCell id="AXdwlv0kfo9XUWebcFwi-32" value="$$r_3$$" style="text;html=1;align=center;verticalAlign=middle;whiteSpace=wrap;rounded=0;fontFamily=Helvetica;fontSize=12;fontColor=default;labelBackgroundColor=none;" vertex="1" parent="1">
          <mxGeometry x="190" y="-630" width="60" height="30" as="geometry" />
        </mxCell>
        <mxCell id="AXdwlv0kfo9XUWebcFwi-33" style="edgeStyle=none;shape=connector;curved=1;rounded=0;orthogonalLoop=1;jettySize=auto;html=1;strokeColor=default;align=center;verticalAlign=middle;fontFamily=Helvetica;fontSize=12;fontColor=default;labelBackgroundColor=default;startSize=8;endArrow=classicThin;endFill=1;endSize=8;exitX=0;exitY=0.5;exitDx=0;exitDy=0;" edge="1" parent="1" source="AXdwlv0kfo9XUWebcFwi-30">
          <mxGeometry relative="1" as="geometry">
            <mxPoint x="130" y="-604" as="targetPoint" />
            <mxPoint x="180" y="-580" as="sourcePoint" />
          </mxGeometry>
        </mxCell>
        <mxCell id="AXdwlv0kfo9XUWebcFwi-34" style="edgeStyle=none;shape=connector;curved=1;rounded=0;orthogonalLoop=1;jettySize=auto;html=1;strokeColor=default;align=center;verticalAlign=middle;fontFamily=Helvetica;fontSize=12;fontColor=default;labelBackgroundColor=default;startSize=8;endArrow=classicThin;endFill=1;endSize=8;exitX=1;exitY=0.5;exitDx=0;exitDy=0;" edge="1" parent="1" source="AXdwlv0kfo9XUWebcFwi-35">
          <mxGeometry relative="1" as="geometry">
            <mxPoint x="240" y="-555" as="targetPoint" />
            <mxPoint x="300" y="-555.43" as="sourcePoint" />
          </mxGeometry>
        </mxCell>
        <mxCell id="AXdwlv0kfo9XUWebcFwi-35" value="" style="ellipse;whiteSpace=wrap;html=1;aspect=fixed;fontFamily=Helvetica;fontSize=12;fontColor=default;labelBackgroundColor=default;" vertex="1" parent="1">
          <mxGeometry x="170" y="-570" width="30" height="30" as="geometry" />
        </mxCell>
        <mxCell id="AXdwlv0kfo9XUWebcFwi-36" value="$$r_3$$" style="text;html=1;align=center;verticalAlign=middle;whiteSpace=wrap;rounded=0;fontFamily=Helvetica;fontSize=12;fontColor=default;labelBackgroundColor=none;" vertex="1" parent="1">
          <mxGeometry x="120" y="-580" width="60" height="30" as="geometry" />
        </mxCell>
        <mxCell id="AXdwlv0kfo9XUWebcFwi-37" value="$$r_5$$" style="text;html=1;align=center;verticalAlign=middle;whiteSpace=wrap;rounded=0;fontFamily=Helvetica;fontSize=12;fontColor=default;labelBackgroundColor=none;" vertex="1" parent="1">
          <mxGeometry x="190" y="-580" width="60" height="30" as="geometry" />
        </mxCell>
        <mxCell id="AXdwlv0kfo9XUWebcFwi-38" style="edgeStyle=none;shape=connector;curved=1;rounded=0;orthogonalLoop=1;jettySize=auto;html=1;strokeColor=default;align=center;verticalAlign=middle;fontFamily=Helvetica;fontSize=12;fontColor=default;labelBackgroundColor=default;startSize=8;endArrow=classicThin;endFill=1;endSize=8;entryX=0.042;entryY=0.862;entryDx=0;entryDy=0;entryPerimeter=0;" edge="1" parent="1">
          <mxGeometry relative="1" as="geometry">
            <mxPoint x="169.99999999999997" y="-555.24" as="targetPoint" />
            <mxPoint x="130" y="-555" as="sourcePoint" />
          </mxGeometry>
        </mxCell>
        <mxCell id="AXdwlv0kfo9XUWebcFwi-39" value="$$r_4$$" style="text;html=1;align=center;verticalAlign=middle;whiteSpace=wrap;rounded=0;fontFamily=Helvetica;fontSize=12;fontColor=default;labelBackgroundColor=none;" vertex="1" parent="1">
          <mxGeometry x="40" y="-650" width="60" height="30" as="geometry" />
        </mxCell>
        <mxCell id="AXdwlv0kfo9XUWebcFwi-50" style="edgeStyle=none;shape=connector;curved=1;rounded=0;orthogonalLoop=1;jettySize=auto;html=1;entryX=0;entryY=0.5;entryDx=0;entryDy=0;strokeColor=default;align=center;verticalAlign=middle;fontFamily=Helvetica;fontSize=12;fontColor=default;labelBackgroundColor=default;startSize=8;endArrow=none;endFill=1;endSize=8;startFill=0;" edge="1" parent="1" source="AXdwlv0kfo9XUWebcFwi-41" target="AXdwlv0kfo9XUWebcFwi-43">
          <mxGeometry relative="1" as="geometry" />
        </mxCell>
        <mxCell id="AXdwlv0kfo9XUWebcFwi-41" value="&lt;span&gt;$$r_1$$&lt;/span&gt;" style="ellipse;whiteSpace=wrap;html=1;aspect=fixed;fontFamily=Helvetica;fontSize=12;fontColor=default;labelBackgroundColor=none;" vertex="1" parent="1">
          <mxGeometry x="280" y="-720" width="30" height="30" as="geometry" />
        </mxCell>
        <mxCell id="AXdwlv0kfo9XUWebcFwi-43" value="&lt;span&gt;$$r_2$$&lt;/span&gt;" style="ellipse;whiteSpace=wrap;html=1;aspect=fixed;fontFamily=Helvetica;fontSize=12;fontColor=default;labelBackgroundColor=none;" vertex="1" parent="1">
          <mxGeometry x="350" y="-720" width="30" height="30" as="geometry" />
        </mxCell>
        <mxCell id="AXdwlv0kfo9XUWebcFwi-51" style="edgeStyle=none;shape=connector;curved=1;rounded=0;orthogonalLoop=1;jettySize=auto;html=1;entryX=0;entryY=0.5;entryDx=0;entryDy=0;strokeColor=default;align=center;verticalAlign=middle;fontFamily=Helvetica;fontSize=12;fontColor=default;labelBackgroundColor=default;startSize=8;endArrow=none;endFill=1;endSize=8;startFill=0;" edge="1" parent="1" source="AXdwlv0kfo9XUWebcFwi-44" target="AXdwlv0kfo9XUWebcFwi-45">
          <mxGeometry relative="1" as="geometry" />
        </mxCell>
        <mxCell id="AXdwlv0kfo9XUWebcFwi-44" value="&lt;span&gt;$$r_2$$&lt;/span&gt;" style="ellipse;whiteSpace=wrap;html=1;aspect=fixed;fontFamily=Helvetica;fontSize=12;fontColor=default;labelBackgroundColor=none;" vertex="1" parent="1">
          <mxGeometry x="280" y="-670" width="30" height="30" as="geometry" />
        </mxCell>
        <mxCell id="AXdwlv0kfo9XUWebcFwi-45" value="&lt;span&gt;$$r_3$$&lt;/span&gt;" style="ellipse;whiteSpace=wrap;html=1;aspect=fixed;fontFamily=Helvetica;fontSize=12;fontColor=default;labelBackgroundColor=none;" vertex="1" parent="1">
          <mxGeometry x="350" y="-670" width="30" height="30" as="geometry" />
        </mxCell>
        <mxCell id="AXdwlv0kfo9XUWebcFwi-52" style="edgeStyle=none;shape=connector;curved=1;rounded=0;orthogonalLoop=1;jettySize=auto;html=1;strokeColor=default;align=center;verticalAlign=middle;fontFamily=Helvetica;fontSize=12;fontColor=default;labelBackgroundColor=default;startSize=8;endArrow=none;endFill=1;endSize=8;startFill=0;" edge="1" parent="1" source="AXdwlv0kfo9XUWebcFwi-46" target="AXdwlv0kfo9XUWebcFwi-47">
          <mxGeometry relative="1" as="geometry" />
        </mxCell>
        <mxCell id="AXdwlv0kfo9XUWebcFwi-46" value="&lt;span&gt;$$r_5$$&lt;/span&gt;" style="ellipse;whiteSpace=wrap;html=1;aspect=fixed;fontFamily=Helvetica;fontSize=12;fontColor=default;labelBackgroundColor=none;" vertex="1" parent="1">
          <mxGeometry x="280" y="-595" width="30" height="30" as="geometry" />
        </mxCell>
        <mxCell id="AXdwlv0kfo9XUWebcFwi-47" value="&lt;span&gt;$$r_3$$&lt;/span&gt;" style="ellipse;whiteSpace=wrap;html=1;aspect=fixed;fontFamily=Helvetica;fontSize=12;fontColor=default;labelBackgroundColor=none;" vertex="1" parent="1">
          <mxGeometry x="350" y="-595" width="30" height="30" as="geometry" />
        </mxCell>
        <mxCell id="AXdwlv0kfo9XUWebcFwi-54" value="H2H" style="text;html=1;align=center;verticalAlign=middle;whiteSpace=wrap;rounded=0;fontFamily=Helvetica;fontSize=12;fontColor=default;labelBackgroundColor=none;" vertex="1" parent="1">
          <mxGeometry x="300" y="-730" width="60" height="30" as="geometry" />
        </mxCell>
        <mxCell id="AXdwlv0kfo9XUWebcFwi-55" value="T2T" style="text;html=1;align=center;verticalAlign=middle;whiteSpace=wrap;rounded=0;fontFamily=Helvetica;fontSize=12;fontColor=default;labelBackgroundColor=none;" vertex="1" parent="1">
          <mxGeometry x="300" y="-680" width="60" height="30" as="geometry" />
        </mxCell>
        <mxCell id="AXdwlv0kfo9XUWebcFwi-56" value="SEQ" style="text;html=1;align=center;verticalAlign=middle;whiteSpace=wrap;rounded=0;fontFamily=Helvetica;fontSize=12;fontColor=default;labelBackgroundColor=none;" vertex="1" parent="1">
          <mxGeometry x="300" y="-605" width="60" height="30" as="geometry" />
        </mxCell>
        <mxCell id="AXdwlv0kfo9XUWebcFwi-83" style="shape=connector;rounded=0;orthogonalLoop=1;jettySize=auto;html=1;strokeColor=default;align=center;verticalAlign=middle;fontFamily=Helvetica;fontSize=12;fontColor=default;labelBackgroundColor=default;startFill=0;startSize=8;endArrow=none;endFill=1;endSize=8;" edge="1" parent="1" source="AXdwlv0kfo9XUWebcFwi-58">
          <mxGeometry relative="1" as="geometry">
            <mxPoint x="440" y="-590" as="targetPoint" />
          </mxGeometry>
        </mxCell>
        <mxCell id="AXdwlv0kfo9XUWebcFwi-84" style="shape=connector;rounded=0;orthogonalLoop=1;jettySize=auto;html=1;entryX=0.5;entryY=1;entryDx=0;entryDy=0;strokeColor=default;align=center;verticalAlign=middle;fontFamily=Helvetica;fontSize=12;fontColor=default;labelBackgroundColor=default;startFill=0;startSize=8;endArrow=none;endFill=1;endSize=8;" edge="1" parent="1" source="AXdwlv0kfo9XUWebcFwi-58" target="AXdwlv0kfo9XUWebcFwi-59">
          <mxGeometry relative="1" as="geometry" />
        </mxCell>
        <mxCell id="AXdwlv0kfo9XUWebcFwi-85" style="shape=connector;rounded=0;orthogonalLoop=1;jettySize=auto;html=1;entryX=0;entryY=0.5;entryDx=0;entryDy=0;strokeColor=default;align=center;verticalAlign=middle;fontFamily=Helvetica;fontSize=12;fontColor=default;labelBackgroundColor=default;startFill=0;startSize=8;endArrow=none;endFill=1;endSize=8;" edge="1" parent="1" source="AXdwlv0kfo9XUWebcFwi-58" target="AXdwlv0kfo9XUWebcFwi-62">
          <mxGeometry relative="1" as="geometry" />
        </mxCell>
        <mxCell id="AXdwlv0kfo9XUWebcFwi-58" value="&lt;span&gt;$$r_1$$&lt;/span&gt;" style="ellipse;whiteSpace=wrap;html=1;aspect=fixed;fontFamily=Helvetica;fontSize=12;labelBackgroundColor=none;fillColor=#ffe6cc;strokeColor=#d79b00;" vertex="1" parent="1">
          <mxGeometry x="470" y="-655" width="30" height="30" as="geometry" />
        </mxCell>
        <mxCell id="AXdwlv0kfo9XUWebcFwi-67" style="edgeStyle=orthogonalEdgeStyle;shape=connector;curved=1;rounded=0;orthogonalLoop=1;jettySize=auto;html=1;entryX=0;entryY=0;entryDx=0;entryDy=0;strokeColor=default;align=center;verticalAlign=middle;fontFamily=Helvetica;fontSize=12;fontColor=default;labelBackgroundColor=default;startFill=0;startSize=8;endArrow=none;endFill=1;endSize=8;" edge="1" parent="1" source="AXdwlv0kfo9XUWebcFwi-59" target="AXdwlv0kfo9XUWebcFwi-60">
          <mxGeometry relative="1" as="geometry">
            <Array as="points">
              <mxPoint x="580" y="-705" />
              <mxPoint x="580" y="-596" />
            </Array>
          </mxGeometry>
        </mxCell>
        <mxCell id="AXdwlv0kfo9XUWebcFwi-59" value="&lt;span&gt;$$r_2$$&lt;/span&gt;" style="ellipse;whiteSpace=wrap;html=1;aspect=fixed;fontFamily=Helvetica;fontSize=12;labelBackgroundColor=none;fillColor=#ffe6cc;strokeColor=#d79b00;" vertex="1" parent="1">
          <mxGeometry x="480" y="-720" width="30" height="30" as="geometry" />
        </mxCell>
        <mxCell id="AXdwlv0kfo9XUWebcFwi-60" value="&lt;span&gt;$$r_3$$&lt;/span&gt;" style="ellipse;whiteSpace=wrap;html=1;aspect=fixed;fontFamily=Helvetica;fontSize=12;labelBackgroundColor=none;fillColor=#ffe6cc;strokeColor=#d79b00;" vertex="1" parent="1">
          <mxGeometry x="540" y="-600" width="30" height="30" as="geometry" />
        </mxCell>
        <mxCell id="AXdwlv0kfo9XUWebcFwi-73" style="edgeStyle=orthogonalEdgeStyle;shape=connector;curved=1;rounded=0;orthogonalLoop=1;jettySize=auto;html=1;strokeColor=default;align=center;verticalAlign=middle;fontFamily=Helvetica;fontSize=12;fontColor=default;labelBackgroundColor=default;startFill=0;startSize=8;endArrow=none;endFill=1;endSize=8;entryX=0.5;entryY=1;entryDx=0;entryDy=0;exitX=1;exitY=0.5;exitDx=0;exitDy=0;" edge="1" parent="1" source="AXdwlv0kfo9XUWebcFwi-61" target="AXdwlv0kfo9XUWebcFwi-61">
          <mxGeometry relative="1" as="geometry">
            <mxPoint x="500" y="-530" as="targetPoint" />
          </mxGeometry>
        </mxCell>
        <mxCell id="AXdwlv0kfo9XUWebcFwi-61" value="&lt;span&gt;$$r_5$$&lt;/span&gt;" style="ellipse;whiteSpace=wrap;html=1;aspect=fixed;fontFamily=Helvetica;fontSize=12;labelBackgroundColor=none;fillColor=#ffe6cc;strokeColor=#d79b00;" vertex="1" parent="1">
          <mxGeometry x="425" y="-590" width="30" height="30" as="geometry" />
        </mxCell>
        <mxCell id="AXdwlv0kfo9XUWebcFwi-86" style="edgeStyle=none;shape=connector;rounded=0;orthogonalLoop=1;jettySize=auto;html=1;entryX=1;entryY=1;entryDx=0;entryDy=0;strokeColor=default;align=center;verticalAlign=middle;fontFamily=Helvetica;fontSize=12;fontColor=default;labelBackgroundColor=default;startFill=0;startSize=8;endArrow=none;endFill=1;endSize=8;" edge="1" parent="1" source="AXdwlv0kfo9XUWebcFwi-62" target="AXdwlv0kfo9XUWebcFwi-59">
          <mxGeometry relative="1" as="geometry" />
        </mxCell>
        <mxCell id="AXdwlv0kfo9XUWebcFwi-87" style="edgeStyle=none;shape=connector;rounded=0;orthogonalLoop=1;jettySize=auto;html=1;entryX=0.5;entryY=0;entryDx=0;entryDy=0;strokeColor=default;align=center;verticalAlign=middle;fontFamily=Helvetica;fontSize=12;fontColor=default;labelBackgroundColor=default;startFill=0;startSize=8;endArrow=none;endFill=1;endSize=8;" edge="1" parent="1" source="AXdwlv0kfo9XUWebcFwi-62" target="AXdwlv0kfo9XUWebcFwi-60">
          <mxGeometry relative="1" as="geometry" />
        </mxCell>
        <mxCell id="AXdwlv0kfo9XUWebcFwi-62" value="&lt;span&gt;$$r_4$$&lt;/span&gt;" style="ellipse;whiteSpace=wrap;html=1;aspect=fixed;fontFamily=Helvetica;fontSize=12;labelBackgroundColor=none;fillColor=#ffe6cc;strokeColor=#d79b00;" vertex="1" parent="1">
          <mxGeometry x="530" y="-660" width="30" height="30" as="geometry" />
        </mxCell>
        <mxCell id="AXdwlv0kfo9XUWebcFwi-66" value="SEQ" style="text;html=1;align=center;verticalAlign=middle;whiteSpace=wrap;rounded=0;fontFamily=Helvetica;fontSize=12;fontColor=default;labelBackgroundColor=none;" vertex="1" parent="1">
          <mxGeometry x="510" y="-630" width="60" height="30" as="geometry" />
        </mxCell>
        <mxCell id="AXdwlv0kfo9XUWebcFwi-68" value="T2T" style="text;html=1;align=center;verticalAlign=middle;whiteSpace=wrap;rounded=0;fontFamily=Helvetica;fontSize=12;fontColor=default;labelBackgroundColor=none;" vertex="1" parent="1">
          <mxGeometry x="440" y="-620" width="60" height="30" as="geometry" />
        </mxCell>
        <mxCell id="AXdwlv0kfo9XUWebcFwi-70" value="SEQ" style="text;html=1;align=center;verticalAlign=middle;whiteSpace=wrap;rounded=0;fontFamily=Helvetica;fontSize=12;fontColor=default;labelBackgroundColor=none;" vertex="1" parent="1">
          <mxGeometry x="480" y="-590" width="60" height="30" as="geometry" />
        </mxCell>
        <mxCell id="AXdwlv0kfo9XUWebcFwi-71" style="edgeStyle=orthogonalEdgeStyle;shape=connector;curved=1;rounded=0;orthogonalLoop=1;jettySize=auto;html=1;strokeColor=default;align=center;verticalAlign=middle;fontFamily=Helvetica;fontSize=12;fontColor=default;labelBackgroundColor=default;startFill=0;startSize=8;endArrow=none;endFill=1;endSize=8;" edge="1" parent="1" source="AXdwlv0kfo9XUWebcFwi-59">
          <mxGeometry relative="1" as="geometry">
            <mxPoint x="440" y="-590" as="targetPoint" />
          </mxGeometry>
        </mxCell>
        <mxCell id="AXdwlv0kfo9XUWebcFwi-72" value="SEQ" style="text;html=1;align=center;verticalAlign=middle;whiteSpace=wrap;rounded=0;fontFamily=Helvetica;fontSize=12;fontColor=default;labelBackgroundColor=none;" vertex="1" parent="1">
          <mxGeometry x="400" y="-685" width="60" height="30" as="geometry" />
        </mxCell>
        <mxCell id="AXdwlv0kfo9XUWebcFwi-74" style="edgeStyle=none;shape=connector;curved=1;rounded=0;orthogonalLoop=1;jettySize=auto;html=1;strokeColor=default;align=center;verticalAlign=middle;fontFamily=Helvetica;fontSize=12;fontColor=default;labelBackgroundColor=default;startFill=0;startSize=8;endArrow=none;endFill=1;endSize=8;" edge="1" parent="1" source="AXdwlv0kfo9XUWebcFwi-61" target="AXdwlv0kfo9XUWebcFwi-61">
          <mxGeometry relative="1" as="geometry" />
        </mxCell>
        <mxCell id="AXdwlv0kfo9XUWebcFwi-75" value="H2H" style="text;html=1;align=center;verticalAlign=middle;whiteSpace=wrap;rounded=0;fontFamily=Helvetica;fontSize=12;fontColor=default;labelBackgroundColor=none;" vertex="1" parent="1">
          <mxGeometry x="440" y="-570" width="60" height="30" as="geometry" />
        </mxCell>
        <mxCell id="AXdwlv0kfo9XUWebcFwi-76" style="edgeStyle=orthogonalEdgeStyle;shape=connector;curved=1;rounded=0;orthogonalLoop=1;jettySize=auto;html=1;entryX=0.707;entryY=0.048;entryDx=0;entryDy=0;entryPerimeter=0;strokeColor=default;align=center;verticalAlign=middle;fontFamily=Helvetica;fontSize=12;fontColor=default;labelBackgroundColor=default;startFill=0;startSize=8;endArrow=none;endFill=1;endSize=8;" edge="1" parent="1" source="AXdwlv0kfo9XUWebcFwi-60" target="AXdwlv0kfo9XUWebcFwi-61">
          <mxGeometry relative="1" as="geometry">
            <Array as="points">
              <mxPoint x="570" y="-589" />
            </Array>
          </mxGeometry>
        </mxCell>
        <mxCell id="AXdwlv0kfo9XUWebcFwi-78" value="H2H" style="text;html=1;align=center;verticalAlign=middle;whiteSpace=wrap;rounded=0;fontFamily=Helvetica;fontSize=12;fontColor=default;labelBackgroundColor=none;" vertex="1" parent="1">
          <mxGeometry x="450" y="-690" width="60" height="30" as="geometry" />
        </mxCell>
        <mxCell id="AXdwlv0kfo9XUWebcFwi-80" value="T2T" style="text;html=1;align=center;verticalAlign=middle;whiteSpace=wrap;rounded=0;fontFamily=Helvetica;fontSize=12;fontColor=default;labelBackgroundColor=none;" vertex="1" parent="1">
          <mxGeometry x="560" y="-685" width="60" height="30" as="geometry" />
        </mxCell>
        <mxCell id="AXdwlv0kfo9XUWebcFwi-88" value="H2H" style="text;html=1;align=center;verticalAlign=middle;whiteSpace=wrap;rounded=0;fontFamily=Helvetica;fontSize=12;fontColor=default;labelBackgroundColor=none;" vertex="1" parent="1">
          <mxGeometry x="510" y="-690" width="60" height="30" as="geometry" />
        </mxCell>
        <mxCell id="AXdwlv0kfo9XUWebcFwi-89" value="H2H" style="text;html=1;align=center;verticalAlign=middle;whiteSpace=wrap;rounded=0;fontFamily=Helvetica;fontSize=12;fontColor=default;labelBackgroundColor=none;" vertex="1" parent="1">
          <mxGeometry x="490" y="-650" width="60" height="30" as="geometry" />
        </mxCell>
        <mxCell id="AXdwlv0kfo9XUWebcFwi-93" value="" style="shape=flexArrow;endArrow=classic;html=1;rounded=0;strokeColor=default;align=center;verticalAlign=middle;fontFamily=Helvetica;fontSize=12;fontColor=default;labelBackgroundColor=default;startSize=8;endSize=7.224561403508772;endWidth=10.526315789473683;" edge="1" parent="1">
          <mxGeometry width="50" height="50" relative="1" as="geometry">
            <mxPoint x="80" y="-620.87" as="sourcePoint" />
            <mxPoint x="120" y="-620.87" as="targetPoint" />
          </mxGeometry>
        </mxCell>
        <mxCell id="AXdwlv0kfo9XUWebcFwi-94" value="" style="shape=flexArrow;endArrow=classic;html=1;rounded=0;strokeColor=default;align=center;verticalAlign=middle;fontFamily=Helvetica;fontSize=12;fontColor=default;labelBackgroundColor=default;startSize=8;endSize=7.224561403508772;endWidth=10.526315789473683;" edge="1" parent="1">
          <mxGeometry width="50" height="50" relative="1" as="geometry">
            <mxPoint x="400" y="-620" as="sourcePoint" />
            <mxPoint x="440" y="-620" as="targetPoint" />
          </mxGeometry>
        </mxCell>
        <mxCell id="AXdwlv0kfo9XUWebcFwi-95" value="" style="endArrow=none;dashed=1;html=1;rounded=0;strokeColor=default;align=center;verticalAlign=middle;fontFamily=Helvetica;fontSize=12;fontColor=default;labelBackgroundColor=default;startSize=8;endSize=8;exitX=0;exitY=0;exitDx=0;exitDy=0;" edge="1" parent="1" source="AXdwlv0kfo9XUWebcFwi-26">
          <mxGeometry width="50" height="50" relative="1" as="geometry">
            <mxPoint x="100" y="-705" as="sourcePoint" />
            <mxPoint x="400" y="-680" as="targetPoint" />
          </mxGeometry>
        </mxCell>
        <mxCell id="AXdwlv0kfo9XUWebcFwi-96" value="" style="endArrow=none;dashed=1;html=1;rounded=0;strokeColor=default;align=center;verticalAlign=middle;fontFamily=Helvetica;fontSize=12;fontColor=default;labelBackgroundColor=default;startSize=8;endSize=8;exitX=0;exitY=0;exitDx=0;exitDy=0;" edge="1" parent="1">
          <mxGeometry width="50" height="50" relative="1" as="geometry">
            <mxPoint x="120" y="-630.61" as="sourcePoint" />
            <mxPoint x="400" y="-630.61" as="targetPoint" />
          </mxGeometry>
        </mxCell>
      </root>
    </mxGraphModel>
  </diagram>
</mxfile>
